<svg xmlns="http://www.w3.org/2000/svg" xmlns:xlink="http://www.w3.org/1999/xlink" width="500" zoomAndPan="magnify" viewBox="0 0 375 374.999991" height="500" preserveAspectRatio="xMidYMid meet" version="1.0"><defs><g/></defs><path fill="#ffcfca" d="M 56.230469 217.492188 C 64.398438 226.765625 71.589844 231.46875 83.582031 234.46875 C 92.171875 236.613281 111.675781 233.96875 114.632812 230.546875 C 116.921875 244.992188 124.457031 259.023438 136.769531 266.914062 C 149.085938 274.804688 166.347656 275.414062 177.941406 266.5 C 179.140625 265.578125 180.359375 264.523438 181.859375 264.292969 C 184.621094 263.859375 186.898438 266.285156 188.835938 268.296875 C 198.199219 278.011719 212.433594 282.769531 225.761719 280.640625 C 239.082031 278.5 251.121094 269.527344 256.972656 257.367188 C 260.570312 264.910156 268.308594 270.3125 276.628906 271.085938 C 284.945312 271.863281 293.550781 267.992188 298.484375 261.246094 C 299.46875 259.90625 300.378906 258.394531 301.867188 257.648438 C 303.621094 256.765625 305.710938 257.160156 307.652344 257.453125 C 331.167969 261.007812 354.796875 245.328125 365.425781 224.054688 C 368.886719 217.136719 371.246094 209.386719 370.332031 201.703125 C 369.582031 195.414062 366.292969 189.214844 361.136719 185.714844 C 359.5625 184.644531 359.457031 182.425781 360.890625 181.171875 C 370.050781 173.199219 374.949219 160.425781 373.140625 148.375 C 371.207031 135.515625 361.722656 124.121094 349.511719 119.722656 C 348.675781 119.421875 348.414062 118.417969 349.003906 117.746094 C 358.625 106.78125 360.375 89.464844 352.882812 76.890625 C 345.535156 64.570312 329.964844 57.882812 315.953125 60.679688 C 314.585938 60.949219 313.269531 59.9375 313.152344 58.546875 C 312.308594 48.644531 306.8125 39.183594 298.527344 33.660156 C 290.113281 28.054688 279.054688 26.664062 269.488281 29.886719 C 268.125 30.347656 266.644531 30.222656 265.457031 29.410156 C 263.507812 28.078125 260.339844 26 257.53125 24.582031 C 244.566406 18.042969 218.855469 16.511719 204.027344 29.3125 C 202.195312 30.894531 199.589844 31.199219 197.550781 29.914062 C 182.210938 20.242188 162.691406 17.351562 145.234375 22.332031 C 126.429688 27.707031 110.425781 42.109375 103.113281 60.246094 C 102.074219 62.832031 101.191406 65.632812 101.144531 68.386719 C 101.101562 70.496094 99.558594 72.242188 97.453125 72.34375 C 85.628906 72.921875 73.980469 78.105469 66.3125 87.101562 C 57.726562 97.179688 54.707031 112 59.597656 124.308594 C 42.421875 136.769531 37.4375 163.199219 48.90625 181.054688 C 48.90625 181.054688 44.328125 204.011719 56.222656 217.5 Z M 56.230469 217.492188 " fill-opacity="1" fill-rule="nonzero"/><path fill="#ffa59b" d="M 77.1875 141.722656 C 77.1875 141.722656 75.601562 135.839844 86.515625 134.027344 C 97.433594 132.21875 110.136719 134.355469 106.390625 142.96875 C 102.644531 151.578125 75.441406 151.1875 77.1875 141.722656 Z M 77.1875 141.722656 " fill-opacity="1" fill-rule="nonzero"/><path fill="#ffa59b" d="M 212.300781 165.5625 C 212.300781 165.5625 210.714844 159.675781 221.632812 157.867188 C 232.546875 156.054688 245.253906 158.195312 241.507812 166.804688 C 237.761719 175.414062 210.554688 175.023438 212.300781 165.5625 Z M 212.300781 165.5625 " fill-opacity="1" fill-rule="nonzero"/><path fill="#ffa59b" d="M 278.53125 101.191406 C 288.574219 102.992188 294.675781 112.53125 291.636719 122.394531 C 290.140625 127.242188 296.820312 129.527344 299.453125 125.691406 C 303.109375 120.367188 310.707031 125.1875 313.886719 128.328125 C 318.199219 132.574219 322.878906 139.25 318.847656 145.175781 C 315.738281 149.738281 323.152344 154.023438 326.234375 149.496094 C 338.542969 131.421875 305.785156 101.378906 292.074219 121.371094 C 294.683594 122.46875 297.289062 123.566406 299.894531 124.671875 C 304.214844 110.679688 295.332031 95.558594 280.816406 92.949219 C 278.546875 92.546875 276.203125 93.566406 275.554688 95.933594 C 274.988281 98.003906 276.253906 100.785156 278.539062 101.195312 Z M 278.53125 101.191406 " fill-opacity="1" fill-rule="nonzero"/><path fill="#ffa59b" d="M 241.492188 237.953125 L 239.914062 237.6875 C 234.457031 236.765625 232.5 243.921875 237.640625 245.933594 C 255.128906 252.789062 276.078125 248.164062 289.34375 234.992188 C 293.257812 231.105469 287.203125 225.058594 283.289062 228.9375 C 272.003906 240.148438 254.652344 243.460938 239.914062 237.679688 C 239.160156 240.429688 238.398438 243.179688 237.640625 245.929688 L 239.222656 246.195312 C 241.5 246.578125 243.828125 245.59375 244.484375 243.210938 C 245.050781 241.15625 243.785156 238.332031 241.5 237.945312 Z M 241.492188 237.953125 " fill-opacity="1" fill-rule="nonzero"/><path fill="#ffa59b" d="M 117.949219 77.714844 C 117.980469 77.625 118.117188 76.949219 118.230469 76.90625 C 117.980469 77.476562 117.949219 77.554688 118.140625 77.128906 L 118.265625 76.863281 C 118.53125 76.324219 118.832031 75.800781 119.167969 75.304688 C 119.335938 75.046875 119.515625 74.792969 119.699219 74.542969 C 120.304688 73.683594 119.105469 75.214844 119.808594 74.410156 C 120.242188 73.921875 120.675781 73.425781 121.136719 72.957031 C 121.597656 72.488281 122.117188 72.007812 122.625 71.558594 C 122.886719 71.328125 123.148438 71.105469 123.421875 70.886719 C 123.507812 70.820312 124.277344 70.222656 123.820312 70.566406 C 123.386719 70.894531 124.289062 70.230469 124.386719 70.15625 C 124.679688 69.945312 124.972656 69.742188 125.273438 69.539062 C 125.875 69.132812 126.484375 68.742188 127.105469 68.367188 C 128.300781 67.640625 129.523438 66.96875 130.773438 66.347656 C 131.417969 66.023438 132.066406 65.71875 132.730469 65.421875 C 132.851562 65.367188 133.953125 64.921875 133.011719 65.296875 C 133.332031 65.171875 133.652344 65.03125 133.984375 64.90625 C 136.324219 63.996094 138.734375 63.257812 141.203125 62.808594 C 143.410156 62.410156 144.855469 59.609375 144.1875 57.546875 C 143.417969 55.179688 141.292969 54.136719 138.921875 54.5625 C 133.03125 55.617188 127.203125 58.183594 122.164062 61.363281 C 116.832031 64.722656 111.667969 69.261719 109.699219 75.453125 C 109.019531 77.582031 110.496094 80.210938 112.683594 80.714844 C 115.015625 81.246094 117.21875 80.007812 117.945312 77.730469 Z M 117.949219 77.714844 " fill-opacity="1" fill-rule="nonzero"/><path fill="#000000" d="M 139.546875 159.59375 C 152.878906 169.648438 172.046875 171.09375 186.621094 162.808594 C 188.617188 161.667969 189.765625 159.402344 188.757812 157.167969 C 187.878906 155.21875 185.132812 153.882812 183.117188 155.027344 C 171.085938 161.878906 155.703125 161.09375 144.605469 152.722656 C 140.210938 149.410156 135.164062 156.289062 139.546875 159.59375 Z M 139.546875 159.59375 " fill-opacity="1" fill-rule="nonzero"/><path fill="#000000" d="M 125.6875 114.132812 C 123.289062 112.890625 120.195312 114.28125 118.679688 116.507812 C 117.160156 118.738281 116.839844 121.554688 116.644531 124.246094 C 116.484375 126.46875 116.398438 128.792969 117.316406 130.835938 C 118.230469 132.867188 120.460938 134.488281 122.632812 133.964844 C 125.679688 133.238281 126.457031 129.332031 126.625 126.207031 C 126.707031 124.636719 126.792969 123.0625 126.875 121.492188 C 126.972656 119.617188 127.058594 117.648438 126.246094 115.957031 C 125.4375 114.265625 123.402344 113 121.65625 113.699219 " fill-opacity="1" fill-rule="nonzero"/><path fill="#000000" d="M 127.839844 110.449219 C 124.9375 109.066406 122.066406 109.179688 119.1875 110.554688 C 116.785156 111.699219 114.996094 113.917969 113.980469 116.328125 C 112.914062 118.855469 112.578125 121.519531 112.382812 124.246094 C 112.171875 127.136719 112.324219 129.96875 113.5 132.660156 C 115.847656 138.039062 123.085938 140.324219 127.492188 135.9375 C 130.941406 132.5 130.832031 127.171875 131.074219 122.664062 C 131.242188 119.507812 131.425781 116.097656 129.648438 113.308594 C 127.769531 110.351562 124.011719 108.386719 120.523438 109.582031 C 118.417969 110.308594 116.804688 112.539062 117.546875 114.832031 C 118.222656 116.914062 120.53125 118.589844 122.792969 117.808594 C 123.164062 117.683594 123.289062 117.789062 122.457031 117.773438 C 122.652344 117.773438 122.96875 117.851562 122.429688 117.71875 C 121.757812 117.550781 122.359375 117.746094 122.527344 117.773438 C 122.953125 117.84375 122.171875 117.675781 122.152344 117.613281 C 122.164062 117.660156 122.625 117.828125 122.632812 117.914062 L 122.421875 117.761719 C 122.144531 117.542969 122.144531 117.558594 122.421875 117.808594 C 122.5 117.976562 122.597656 118.25 122.453125 117.824219 C 122.226562 117.152344 122.570312 118.054688 122.570312 118.117188 C 122.570312 118.058594 122.3125 117.199219 122.507812 118.074219 C 122.542969 118.234375 122.578125 118.421875 122.632812 118.585938 C 122.835938 119.164062 122.613281 117.871094 122.632812 118.488281 C 122.632812 118.660156 122.660156 118.835938 122.667969 119.019531 C 122.710938 119.976562 122.648438 120.941406 122.597656 121.898438 C 122.5 123.679688 122.464844 125.476562 122.285156 127.257812 C 122.269531 127.390625 122.25 127.523438 122.242188 127.65625 C 122.207031 128.222656 122.417969 126.761719 122.285156 127.320312 C 122.214844 127.621094 122.171875 127.933594 122.101562 128.242188 C 122.03125 128.550781 121.957031 128.84375 121.859375 129.136719 C 121.816406 129.261719 121.773438 129.382812 121.730469 129.507812 C 121.496094 130.296875 122.074219 128.949219 121.816406 129.3125 C 121.753906 129.402344 121.382812 129.933594 121.390625 130.058594 C 121.367188 129.660156 122.003906 129.386719 121.621094 129.757812 C 121.5625 129.808594 121.292969 130.058594 121.292969 130.085938 C 121.292969 130.109375 122.046875 129.527344 121.691406 129.773438 C 121.523438 129.890625 121.066406 130.050781 121.683594 129.835938 C 122.417969 129.585938 121.816406 129.800781 121.738281 129.800781 C 120.871094 129.78125 122.492188 129.878906 121.921875 129.808594 C 121.757812 129.785156 121.109375 129.792969 121.789062 129.835938 C 122.429688 129.878906 121.925781 129.800781 121.800781 129.800781 C 121.257812 129.773438 121.835938 129.394531 122.023438 129.90625 C 122.011719 129.863281 121.695312 129.710938 121.648438 129.6875 C 121.152344 129.464844 122.191406 130.226562 121.808594 129.828125 C 121.710938 129.722656 121.59375 129.621094 121.488281 129.527344 C 120.871094 128.984375 121.5625 129.703125 121.578125 129.710938 C 121.417969 129.625 121.261719 129.234375 121.1875 129.089844 C 121.136719 129.003906 120.992188 128.792969 120.992188 128.695312 C 121.046875 128.824219 121.101562 128.941406 121.164062 129.066406 L 121.0625 128.730469 C 121.019531 128.515625 120.941406 128.269531 120.894531 128.054688 C 120.871094 127.96875 120.765625 127.382812 120.859375 127.929688 C 120.957031 128.507812 120.859375 127.765625 120.84375 127.621094 C 120.832031 127.445312 120.824219 127.269531 120.816406 127.089844 C 120.800781 126.613281 120.808594 126.140625 120.832031 125.671875 C 120.863281 124.804688 120.929688 123.9375 121.011719 123.070312 C 121.027344 122.902344 121.046875 122.730469 121.0625 122.5625 C 121.136719 121.742188 121.039062 122.546875 121.039062 122.679688 C 121.054688 122.238281 121.1875 121.769531 121.285156 121.34375 C 121.394531 120.855469 121.527344 120.367188 121.695312 119.890625 C 121.738281 119.757812 121.789062 119.527344 121.871094 119.421875 C 121.355469 120.085938 121.792969 119.648438 121.933594 119.386719 C 122.019531 119.242188 122.109375 119.101562 122.1875 118.953125 C 122.667969 118.074219 121.800781 119.3125 122.128906 118.984375 C 122.261719 118.851562 122.382812 118.703125 122.515625 118.570312 C 122.84375 118.25 123.082031 118.339844 122.410156 118.589844 C 122.730469 118.472656 123.082031 118.171875 123.375 117.996094 C 123.84375 117.726562 123.527344 118.179688 123.128906 118.101562 C 123.242188 118.125 123.546875 117.984375 123.660156 117.949219 C 124.410156 117.71875 123.394531 118.054688 123.332031 117.96875 C 123.359375 118.011719 123.953125 117.96875 124.003906 117.96875 C 124.421875 117.914062 123.589844 117.957031 123.535156 117.90625 C 123.667969 117.933594 123.800781 117.96875 123.925781 118.011719 C 124.234375 118.117188 124.101562 118.058594 123.542969 117.84375 C 125.546875 118.800781 128.238281 118.464844 129.378906 116.3125 C 130.382812 114.414062 130 111.503906 127.847656 110.476562 Z M 127.839844 110.449219 " fill-opacity="1" fill-rule="nonzero"/><path fill="#000000" d="M 212.085938 132.855469 C 209.6875 131.609375 206.59375 133 205.074219 135.230469 C 203.558594 137.460938 203.238281 140.277344 203.042969 142.96875 C 202.882812 145.191406 202.796875 147.515625 203.714844 149.558594 C 204.628906 151.589844 206.859375 153.210938 209.03125 152.6875 C 212.078125 151.960938 212.855469 148.054688 213.023438 144.929688 C 213.105469 143.359375 213.191406 141.785156 213.273438 140.214844 C 213.371094 138.339844 213.453125 136.371094 212.644531 134.679688 C 211.832031 132.988281 209.800781 131.722656 208.054688 132.421875 " fill-opacity="1" fill-rule="nonzero"/><path fill="#000000" d="M 214.238281 129.179688 C 211.335938 127.796875 208.464844 127.90625 205.585938 129.285156 C 203.183594 130.429688 201.394531 132.644531 200.378906 135.054688 C 199.367188 137.46875 198.976562 140.25 198.78125 142.972656 C 198.570312 145.867188 198.722656 148.699219 199.898438 151.386719 C 202.246094 156.769531 209.484375 159.054688 213.886719 154.664062 C 217.339844 151.226562 217.230469 145.902344 217.472656 141.394531 C 217.640625 138.234375 217.824219 134.824219 216.046875 132.039062 C 214.167969 129.082031 210.40625 127.117188 206.921875 128.3125 C 204.816406 129.039062 203.203125 131.269531 203.945312 133.5625 C 204.621094 135.644531 206.929688 137.320312 209.191406 136.539062 C 209.5625 136.410156 209.6875 136.515625 208.855469 136.503906 C 209.050781 136.503906 209.367188 136.578125 208.828125 136.445312 C 208.15625 136.277344 208.757812 136.476562 208.925781 136.503906 C 209.351562 136.574219 208.570312 136.40625 208.550781 136.34375 C 208.5625 136.390625 209.023438 136.558594 209.03125 136.640625 L 208.820312 136.488281 C 208.542969 136.273438 208.542969 136.285156 208.820312 136.539062 C 208.898438 136.707031 208.996094 136.976562 208.851562 136.550781 C 208.625 135.878906 208.96875 136.78125 208.96875 136.84375 C 208.96875 136.789062 208.710938 135.929688 208.90625 136.804688 C 208.941406 136.964844 208.976562 137.152344 209.03125 137.3125 C 209.234375 137.894531 209.011719 136.601562 209.03125 137.214844 C 209.03125 137.390625 209.058594 137.566406 209.066406 137.746094 C 209.109375 138.703125 209.046875 139.667969 208.996094 140.625 C 208.898438 142.40625 208.863281 144.203125 208.683594 145.984375 C 208.667969 146.117188 208.648438 146.25 208.640625 146.382812 C 208.605469 146.949219 208.816406 145.488281 208.683594 146.050781 C 208.613281 146.347656 208.570312 146.664062 208.5 146.972656 C 208.429688 147.277344 208.351562 147.574219 208.253906 147.867188 C 208.214844 147.992188 208.171875 148.109375 208.128906 148.238281 C 207.890625 149.027344 208.472656 147.675781 208.214844 148.039062 C 208.152344 148.132812 207.78125 148.664062 207.789062 148.789062 C 207.765625 148.390625 208.402344 148.117188 208.019531 148.488281 C 207.960938 148.535156 207.691406 148.789062 207.691406 148.816406 C 207.691406 148.835938 208.445312 148.257812 208.089844 148.503906 C 207.921875 148.621094 207.464844 148.78125 208.082031 148.566406 C 208.816406 148.3125 208.214844 148.53125 208.136719 148.53125 C 207.269531 148.507812 208.890625 148.605469 208.320312 148.535156 C 208.15625 148.515625 207.507812 148.523438 208.1875 148.566406 C 208.828125 148.605469 208.324219 148.53125 208.199219 148.53125 C 207.65625 148.503906 208.234375 148.125 208.421875 148.632812 C 208.410156 148.59375 208.09375 148.4375 208.046875 148.417969 C 207.550781 148.195312 208.589844 148.957031 208.207031 148.558594 C 208.109375 148.453125 207.988281 148.347656 207.886719 148.257812 C 207.269531 147.710938 207.960938 148.433594 207.976562 148.4375 C 207.816406 148.355469 207.660156 147.964844 207.585938 147.816406 C 207.535156 147.734375 207.390625 147.523438 207.390625 147.425781 L 207.5625 147.796875 L 207.460938 147.460938 C 207.417969 147.242188 207.339844 147 207.292969 146.78125 C 207.269531 146.699219 207.164062 146.113281 207.257812 146.65625 C 207.355469 147.238281 207.257812 146.496094 207.242188 146.347656 C 207.226562 146.175781 207.222656 146 207.214844 145.820312 C 207.199219 145.34375 207.207031 144.867188 207.226562 144.398438 C 207.261719 143.53125 207.328125 142.667969 207.410156 141.800781 C 207.425781 141.632812 207.445312 141.457031 207.460938 141.289062 C 207.535156 140.472656 207.4375 141.277344 207.4375 141.410156 C 207.453125 140.96875 207.585938 140.5 207.683594 140.074219 C 207.792969 139.585938 207.925781 139.09375 208.09375 138.621094 C 208.136719 138.488281 208.1875 138.257812 208.269531 138.152344 C 207.753906 138.816406 208.191406 138.375 208.332031 138.117188 C 208.417969 137.96875 208.507812 137.832031 208.585938 137.683594 C 209.066406 136.804688 208.199219 138.039062 208.527344 137.710938 C 208.660156 137.578125 208.78125 137.433594 208.914062 137.300781 C 209.242188 136.976562 209.480469 137.070312 208.808594 137.320312 C 209.128906 137.203125 209.480469 136.902344 209.773438 136.726562 C 210.242188 136.453125 209.925781 136.90625 209.527344 136.832031 C 209.640625 136.851562 209.945312 136.710938 210.058594 136.675781 C 210.804688 136.445312 209.792969 136.78125 209.730469 136.699219 C 209.757812 136.742188 210.351562 136.699219 210.402344 136.699219 C 210.820312 136.640625 209.988281 136.683594 209.933594 136.636719 C 210.066406 136.664062 210.199219 136.699219 210.324219 136.742188 C 210.632812 136.84375 210.5 136.789062 209.941406 136.574219 C 211.945312 137.53125 214.636719 137.195312 215.773438 135.042969 C 216.78125 133.140625 216.398438 130.234375 214.246094 129.207031 Z M 214.238281 129.179688 " fill-opacity="1" fill-rule="nonzero"/><path fill="#ffa59b" d="M 164.277344 98.644531 C 165.828125 84.375 176.792969 72.0625 190.527344 68.308594 C 193.347656 67.539062 194.273438 64.472656 193.082031 62.027344 C 188.066406 51.71875 199.484375 42.222656 206.339844 36.457031 C 210.5625 32.90625 204.480469 26.882812 200.289062 30.402344 C 189.785156 39.238281 178.625 51.816406 185.695312 66.339844 C 186.550781 64.242188 187.402344 62.152344 188.253906 60.054688 C 170.574219 64.890625 157.695312 80.546875 155.730469 98.640625 C 155.136719 104.105469 163.699219 104.0625 164.285156 98.640625 Z M 164.277344 98.644531 " fill-opacity="1" fill-rule="nonzero"/><path fill="#ffa59b" d="M 270.46875 55.394531 C 264.546875 53.941406 258.34375 53.949219 252.464844 55.625 C 249.578125 56.449219 246.734375 57.667969 244.167969 59.21875 C 243.582031 59.574219 242.660156 60.007812 242.21875 60.503906 L 241.472656 61.0625 C 242.058594 61.363281 242.644531 61.664062 243.234375 61.964844 C 243.378906 61.71875 240.039062 59.085938 239.667969 58.796875 C 231.121094 52.0625 219.144531 47.917969 208.589844 52.203125 C 206.433594 53.074219 204.964844 55.039062 205.605469 57.464844 C 206.144531 59.496094 208.730469 61.320312 210.871094 60.449219 C 220.644531 56.476562 229.988281 61.558594 237.382812 68.191406 C 242.484375 72.773438 247.300781 66.6875 252.09375 64.753906 C 257.230469 62.683594 262.847656 62.3125 268.214844 63.628906 C 273.582031 64.941406 275.839844 56.6875 270.488281 55.382812 Z M 270.46875 55.394531 " fill-opacity="1" fill-rule="nonzero"/><path fill="#ffa59b" d="M 231.839844 254.957031 C 247.210938 260.148438 262.011719 251.664062 274.527344 243.566406 C 279.132812 240.589844 274.847656 233.179688 270.207031 236.179688 C 259.667969 243 247.160156 251.121094 234.113281 246.703125 C 228.886719 244.9375 226.640625 253.195312 231.839844 254.949219 Z M 231.839844 254.957031 " fill-opacity="1" fill-rule="nonzero"/><path fill="#ffffff" d="M 341.9375 114.027344 C 343.851562 110.898438 345.535156 106.296875 345.640625 102.777344 C 345.753906 99.078125 345.304688 95.433594 344.871094 91.753906 C 344.132812 85.410156 340.722656 79.601562 336.488281 74.429688 C 336.375 74.292969 336.234375 74.164062 336.117188 74.027344 C 334.738281 72.417969 332.851562 71.015625 331.71875 70.289062 C 325.855469 66.519531 320.265625 65.046875 312.921875 66.738281 C 306.183594 68.289062 304.941406 73.132812 307.519531 79.53125 C 308.75 82.578125 311.1875 84.789062 313.460938 87.164062 C 315.6875 89.492188 317.605469 92.050781 319.246094 94.769531 C 320.824219 97.382812 322.125 100.105469 323.105469 102.972656 C 324.1875 106.152344 324.621094 109.570312 326.304688 112.546875 C 330.042969 119.164062 337.871094 120.667969 341.9375 114.027344 Z M 341.9375 114.027344 " fill-opacity="1" fill-rule="nonzero"/><path fill="#ffffff" d="M 354.550781 138.640625 C 356.046875 142.074219 357.0625 146.113281 354.929688 149.429688 C 353.847656 151.121094 352.160156 152.542969 350.164062 152.996094 C 348.039062 153.476562 346.054688 153.105469 344.117188 152.183594 C 340.996094 150.695312 339.128906 147.3125 338.535156 144.03125 C 338.242188 142.402344 337.988281 140.648438 337.980469 138.984375 C 337.980469 136.46875 339.128906 134.230469 341.238281 132.867188 C 343.019531 131.714844 345.160156 131.535156 347.199219 131.890625 C 348.882812 132.183594 350.632812 132.839844 351.867188 133.992188 C 352.855469 134.910156 353.449219 136.117188 354.550781 138.640625 Z M 354.550781 138.640625 " fill-opacity="1" fill-rule="nonzero"/><path fill="#ffffff" d="M 94.078125 111.503906 C 94.960938 107.492188 96.21875 105.71875 99.300781 103.148438 C 102.421875 100.539062 108.496094 98.09375 106.75 92.929688 C 105.03125 87.855469 97.992188 89.835938 94.6875 91.910156 C 90.851562 94.320312 87.011719 98.023438 85.617188 102.324219 C 84.359375 106.199219 84.46875 106.96875 84.867188 109.75 C 85.054688 111.070312 85.777344 113.511719 87.585938 114.949219 C 87.585938 114.949219 89.390625 116.621094 91.472656 115.941406 C 93.554688 115.265625 93.765625 112.929688 94.070312 111.511719 Z M 94.078125 111.503906 " fill-opacity="1" fill-rule="nonzero"/><path fill="#ffffff" d="M 225.445312 110.421875 C 223.449219 111.140625 222.757812 112.992188 222.625 115.011719 C 222.414062 118.125 225.035156 120.5 227.101562 122.429688 C 229.339844 124.511719 231.742188 126.425781 234.257812 128.160156 C 235.351562 128.90625 236.476562 129.71875 237.664062 130.296875 C 239.90625 131.402344 242.199219 130.242188 243.039062 127.992188 C 243.539062 126.636719 243.324219 125.195312 243.039062 123.8125 C 242.757812 122.484375 242.277344 121.21875 241.714844 119.980469 C 240.695312 117.695312 239.117188 115.574219 237.257812 113.902344 C 235.320312 112.160156 232.589844 110.660156 229.925781 110.128906 C 227.699219 109.679688 226.503906 110.042969 225.445312 110.421875 Z M 228.328125 115.1875 C 228.328125 115.1875 228.328125 115.203125 228.328125 115.210938 C 228.328125 115.195312 228.328125 115.195312 228.320312 115.179688 C 228.320312 115.167969 228.320312 115.179688 228.320312 115.167969 C 228.320312 115.167969 228.320312 115.175781 228.328125 115.179688 Z M 237.640625 126.195312 C 237.640625 126.195312 237.640625 126.230469 237.636719 126.238281 C 237.566406 126.371094 237.601562 126.300781 237.640625 126.195312 Z M 237.640625 126.195312 " fill-opacity="1" fill-rule="nonzero"/><path fill="#ffffff" d="M 126.9375 42.464844 C 126.9375 42.464844 125.863281 40.027344 129.53125 36.085938 C 133.207031 32.144531 144.152344 26.148438 151.964844 24.871094 C 159.777344 23.589844 164.328125 23.988281 163.550781 29.628906 C 162.773438 35.269531 148.839844 36.695312 144.21875 38.125 C 139.601562 39.550781 129.035156 46.34375 126.9375 42.464844 Z M 126.9375 42.464844 " fill-opacity="1" fill-rule="nonzero"/><path fill="#ffbdc5" d="M 71.679688 212.699219 C 71.679688 212.699219 61.246094 199.699219 74.671875 190.832031 C 88.089844 181.96875 99.753906 196.527344 102.855469 200.035156 C 105.957031 203.542969 114.339844 204.375 126.9375 203.347656 C 139.539062 202.320312 146.792969 219.246094 154.527344 222.277344 C 162.265625 225.3125 167.277344 226.03125 178.242188 219.097656 C 189.199219 212.167969 201.726562 221.175781 210.003906 225.722656 C 218.277344 230.28125 238.1875 232.070312 247.578125 223.570312 C 256.972656 215.074219 253.6875 214.578125 258.984375 211.941406 C 264.289062 209.308594 273.605469 214.402344 286.316406 211.046875 C 299.027344 207.695312 311.257812 193.976562 315.863281 184.910156 C 324.675781 167.546875 342.355469 170.222656 350.476562 177.449219 C 356.996094 183.25 360.917969 194.492188 358.382812 210.824219 C 355.84375 227.15625 338.324219 249.546875 319.832031 249.996094 C 301.34375 250.441406 303.886719 248.917969 303.886719 248.917969 C 303.886719 248.917969 296.707031 261.398438 281.089844 261.058594 C 265.476562 260.707031 261.898438 251.191406 257.644531 252.257812 C 253.394531 253.328125 242.828125 270.589844 219.816406 273.476562 C 196.800781 276.363281 184.269531 256.363281 184.269531 256.363281 C 184.269531 256.363281 166.820312 262.945312 150.273438 259.808594 C 133.71875 256.675781 120.628906 230.769531 121.585938 227.507812 C 121.585938 227.507812 112.25 227.597656 106.433594 221.113281 C 106.433594 221.113281 83.457031 229.335938 71.679688 212.699219 Z M 71.679688 212.699219 " fill-opacity="1" fill-rule="nonzero"/><path fill="#ffa59b" d="M 146.714844 179.648438 C 141.238281 187.238281 140.460938 197.519531 143.703125 206.183594 C 145.269531 210.371094 147.574219 214.109375 150.40625 217.554688 C 151.824219 219.273438 153.382812 220.882812 155.039062 222.363281 C 155.871094 223.105469 156.738281 223.808594 157.601562 224.507812 C 158.113281 224.894531 158.625 225.292969 159.121094 225.703125 C 159.175781 223.089844 158.894531 222.390625 158.28125 223.613281 C 157.007812 224.761719 156.179688 227.953125 155.765625 229.546875 C 155.183594 231.796875 154.917969 234.230469 155.003906 236.550781 C 155.164062 240.945312 156.378906 245.285156 158.464844 249.15625 C 162.789062 257.191406 170.664062 262.742188 178.792969 266.445312 C 183.769531 268.710938 188.113281 261.335938 183.109375 259.058594 C 176.277344 255.949219 169.46875 251.660156 165.851562 244.835938 C 164.019531 241.386719 163.136719 237.277344 163.675781 233.382812 C 164.160156 229.890625 167.359375 226.949219 167.039062 223.453125 C 166.695312 219.75 162.710938 217.855469 160.265625 215.5625 C 157.40625 212.886719 154.953125 209.875 153.125 206.410156 C 149.320312 199.230469 149.28125 190.648438 154.101562 183.96875 C 157.332031 179.496094 149.917969 175.226562 146.714844 179.648438 Z M 146.714844 179.648438 " fill-opacity="1" fill-rule="nonzero"/><path fill="#ffa59b" d="M 55.496094 163.988281 C 52.769531 172.234375 53.621094 180.585938 57.710938 188.230469 C 61.667969 195.625 68.269531 201.214844 76.082031 204.15625 C 78.242188 204.96875 80.773438 203.257812 81.34375 201.175781 C 82.003906 198.777344 80.527344 196.730469 78.363281 195.910156 C 72.777344 193.808594 68.003906 189.34375 65.105469 183.917969 C 62.203125 178.496094 61.679688 172.527344 63.753906 166.265625 C 64.480469 164.070312 62.917969 161.597656 60.773438 161.003906 C 58.445312 160.363281 56.234375 161.792969 55.507812 163.988281 Z M 55.496094 163.988281 " fill-opacity="1" fill-rule="nonzero"/><path fill="#5e4d5c" d="M 126.519531 154.695312 C 111.792969 162.082031 93.367188 155.664062 84.734375 142.058594 C 75.761719 127.90625 76.214844 106.328125 87.949219 93.707031 C 98.433594 82.425781 118.914062 78.519531 131.96875 87.472656 C 137.53125 91.289062 142.3125 96.339844 145.339844 102.398438 C 149.292969 110.316406 149.097656 119.261719 147.308594 127.730469 C 145.800781 134.886719 143.089844 141.925781 137.832031 147.175781 C 134.5625 150.4375 130.578125 152.589844 126.519531 154.699219 C 121.632812 157.246094 125.953125 164.625 130.835938 162.085938 C 135.539062 159.640625 140.097656 157.007812 143.886719 153.226562 C 149.496094 147.613281 153 140.25 154.949219 132.625 C 157.535156 122.503906 158.238281 111.566406 154.324219 101.699219 C 151.105469 93.578125 145.449219 86.960938 138.53125 81.726562 C 130.4375 75.597656 120.675781 73.570312 110.648438 74.464844 C 100.851562 75.339844 92.730469 78.667969 85.035156 84.808594 C 68.621094 97.917969 66.371094 124.230469 75.027344 142.199219 C 84.890625 162.652344 110.292969 172.402344 130.835938 162.09375 C 135.757812 159.628906 131.433594 152.242188 126.519531 154.707031 Z M 126.519531 154.695312 " fill-opacity="1" fill-rule="nonzero"/><path fill="#5e4d5c" d="M 232.246094 177.308594 C 217.523438 184.695312 199.09375 178.28125 190.464844 164.671875 C 181.488281 150.523438 181.945312 128.941406 193.679688 116.320312 C 204.160156 105.039062 224.644531 101.132812 237.699219 110.085938 C 243.261719 113.902344 248.039062 118.953125 251.066406 125.015625 C 255.023438 132.933594 254.828125 141.878906 253.039062 150.347656 C 251.527344 157.503906 248.816406 164.539062 243.5625 169.789062 C 240.289062 173.050781 236.308594 175.203125 232.246094 177.316406 C 227.363281 179.859375 231.679688 187.238281 236.566406 184.703125 C 241.269531 182.257812 245.824219 179.621094 249.613281 175.839844 C 255.226562 170.230469 258.726562 162.863281 260.675781 155.238281 C 263.261719 145.121094 263.96875 134.183594 260.054688 124.316406 C 256.832031 116.195312 251.179688 109.578125 244.261719 104.34375 C 236.167969 98.214844 226.40625 96.1875 216.375 97.082031 C 206.578125 97.953125 198.457031 101.28125 190.761719 107.425781 C 174.347656 120.535156 172.097656 146.847656 180.757812 164.8125 C 190.617188 185.269531 216.019531 195.015625 236.566406 184.710938 C 241.484375 182.242188 237.160156 174.855469 232.246094 177.324219 Z M 232.246094 177.308594 " fill-opacity="1" fill-rule="nonzero"/><path fill="#5e4d5c" d="M 67 97.1875 C 66.964844 97.074219 66.933594 96.960938 66.914062 96.851562 L 67.066406 97.988281 C 67.054688 97.816406 67.046875 97.660156 67.066406 97.492188 L 66.914062 98.632812 C 66.941406 98.464844 66.984375 98.316406 67.03125 98.15625 L 66.601562 99.175781 C 66.691406 98.96875 66.796875 98.777344 66.929688 98.589844 C 66.703125 98.878906 66.480469 99.171875 66.257812 99.457031 C 66.445312 99.21875 66.648438 99.023438 66.886719 98.835938 C 66.601562 99.058594 66.304688 99.28125 66.019531 99.507812 C 66.269531 99.332031 66.53125 99.183594 66.816406 99.066406 L 65.796875 99.5 C 66.027344 99.414062 66.257812 99.351562 66.503906 99.304688 L 65.363281 99.457031 C 65.683594 99.414062 65.976562 99.421875 66.292969 99.457031 L 65.152344 99.304688 C 65.503906 99.367188 65.832031 99.457031 66.167969 99.582031 L 65.144531 99.148438 C 65.742188 99.402344 66.277344 99.738281 66.796875 100.128906 C 66.507812 99.90625 66.214844 99.679688 65.929688 99.457031 C 67.355469 100.574219 68.570312 101.929688 69.96875 103.085938 C 71.078125 104.007812 72.164062 104.941406 73.203125 105.941406 C 74.816406 107.492188 77.667969 107.667969 79.257812 105.941406 C 80.800781 104.265625 80.980469 101.546875 79.257812 99.890625 C 78.242188 98.910156 77.1875 97.996094 76.105469 97.101562 C 74.753906 95.996094 73.582031 94.703125 72.234375 93.609375 C 69.828125 91.652344 66.761719 90.121094 63.601562 91.203125 C 60.199219 92.371094 57.660156 95.773438 58.738281 99.464844 C 59.367188 101.609375 61.777344 103.167969 64 102.449219 C 66.179688 101.742188 67.664062 99.484375 66.984375 97.1875 Z M 67 97.1875 " fill-opacity="1" fill-rule="nonzero"/><path fill="#ffa59b" d="M 223.335938 251.652344 C 197.851562 269.757812 170.191406 284.46875 144.703125 302.578125 C 146.652344 303.085938 148.601562 303.597656 150.550781 304.113281 C 147.546875 297.453125 142.628906 287.914062 134.84375 286.082031 C 131.300781 285.25 127.65625 286.816406 125.875 289.988281 C 123.863281 293.582031 125.066406 297.699219 126.5625 301.214844 C 128.609375 306.027344 131.550781 312.871094 137.21875 314.324219 C 141.335938 315.378906 144.683594 312.90625 147.582031 310.332031 C 148.617188 309.417969 149.195312 307.488281 148.679688 306.175781 C 147.5625 303.316406 146.261719 300.746094 143.648438 298.984375 C 141.472656 297.523438 139.035156 296.636719 136.902344 295.058594 C 133.199219 292.324219 129.265625 297.46875 131.054688 300.90625 C 132.84375 304.34375 135.164062 306.71875 138.191406 308.839844 C 140.9375 310.757812 144.589844 308.175781 144.625 305.148438 C 144.6875 300.191406 142.96875 295.917969 139.796875 292.164062 C 137.867188 289.878906 133.082031 290.925781 132.648438 294.050781 C 131.703125 300.855469 133.375 306.984375 137.917969 312.207031 C 141.535156 316.363281 147.566406 310.296875 143.96875 306.15625 C 141.648438 303.492188 140.410156 299.863281 140.902344 296.320312 C 138.519531 296.949219 136.136719 297.578125 133.75 298.207031 C 135.464844 300.234375 136.105469 302.535156 136.070312 305.148438 C 138.21875 303.917969 140.363281 302.6875 142.507812 301.457031 C 140.675781 300.179688 139.460938 298.558594 138.441406 296.59375 C 136.492188 298.542969 134.542969 300.492188 132.59375 302.445312 C 135.273438 304.429688 139.152344 305.160156 140.441406 308.445312 L 141.535156 304.289062 C 140.808594 304.9375 140.382812 305.289062 140.082031 305.511719 C 139.761719 305.75 139.40625 305.917969 139.0625 306.113281 C 139.585938 305.8125 138.777344 305.917969 139.460938 306.027344 C 139.152344 305.980469 139.390625 306.246094 139.019531 305.785156 C 138.027344 304.5625 137.164062 303.457031 136.378906 302.046875 C 135.253906 300.003906 134.464844 297.902344 133.585938 295.753906 C 133.4375 295.320312 133.355469 294.875 133.339844 294.414062 C 132.730469 294.351562 132.640625 294.363281 133.066406 294.460938 C 133.710938 294.300781 134.90625 295.582031 135.332031 295.984375 C 138.804688 299.277344 141.214844 304.128906 143.160156 308.425781 C 144.054688 310.410156 147.265625 311.191406 149.007812 309.964844 C 174.496094 291.855469 202.15625 277.144531 227.640625 259.039062 C 232.09375 255.871094 227.824219 248.457031 223.324219 251.652344 Z M 223.335938 251.652344 " fill-opacity="1" fill-rule="nonzero"/><path fill="#ffa59b" d="M 56.355469 219.945312 C 42.929688 222.671875 29.601562 225.855469 16.394531 229.511719 C 18.199219 230.890625 20 232.257812 21.8125 233.636719 C 21.875 232.035156 22.152344 231.972656 22.886719 230.539062 C 23.867188 228.625 23.796875 226.582031 23.046875 224.597656 C 22.734375 223.773438 22.335938 223 21.980469 222.195312 C 22.007812 222.25 22.441406 223.339844 22.152344 222.59375 C 21.910156 221.964844 21.683594 221.328125 21.433594 220.699219 C 20.644531 218.714844 19.792969 216.722656 18.644531 214.914062 C 15.960938 210.683594 11.117188 206.164062 5.933594 209.449219 C -0.015625 213.214844 1.441406 220.203125 4.347656 225.394531 C 6.910156 229.972656 10.175781 234.566406 15.285156 236.457031 C 17.90625 237.429688 20.886719 237.109375 22.640625 234.738281 C 24.398438 232.371094 24.089844 229.492188 23.171875 226.914062 C 22.257812 224.332031 21.019531 221.566406 19.617188 219.078125 C 18.203125 216.578125 16.457031 213.160156 13.832031 211.753906 C 11 210.238281 7.46875 211.609375 6.351562 214.589844 C 5.367188 217.242188 6.109375 220.574219 6.542969 223.300781 C 7.316406 228.136719 9.988281 235.640625 15.101562 237.375 C 18.574219 238.546875 22.179688 236.25 22.453125 232.546875 C 22.621094 230.265625 22.601562 227.207031 21.804688 225.054688 C 21.007812 222.902344 18.902344 221.417969 16.542969 222.070312 C 14.460938 222.640625 12.746094 225.152344 13.558594 227.332031 C 14.027344 228.589844 14.0625 230.980469 13.898438 232.550781 L 14.488281 230.394531 L 14.152344 230.980469 L 15.6875 229.441406 L 15.199219 229.730469 C 15.917969 229.53125 16.640625 229.335938 17.359375 229.140625 C 18.367188 229.101562 18.324219 229.660156 17.511719 228.402344 C 17.234375 227.976562 16.96875 227.535156 16.722656 227.085938 C 16.171875 226.09375 15.753906 225.101562 15.4375 224.003906 C 15.136719 222.976562 14.925781 221.929688 14.773438 220.867188 C 14.695312 220.300781 14.648438 219.734375 14.59375 219.167969 C 14.558594 218.777344 14.753906 216.835938 14.222656 217.882812 L 12.683594 219.421875 L 13.144531 219.105469 C 12.425781 219.300781 11.707031 219.496094 10.984375 219.691406 L 11.671875 219.726562 L 9.511719 219.140625 C 10.265625 219.644531 10.847656 221.097656 11.328125 221.875 C 12.027344 223 12.671875 224.160156 13.265625 225.339844 C 13.761719 226.324219 14.214844 227.324219 14.613281 228.359375 C 14.828125 228.917969 14.941406 229.863281 15.289062 230.292969 C 15.988281 231.167969 12.523438 230.804688 16.316406 229.015625 L 18.476562 228.429688 C 15.382812 228.589844 12.433594 222.445312 11.285156 220.289062 C 10.777344 219.328125 10.417969 218.441406 10.195312 217.386719 C 10.167969 217.261719 10.386719 216.800781 10.371094 216.773438 C 10.832031 216.449219 10.609375 216.378906 9.699219 216.582031 C 8.757812 216.421875 8.554688 216.480469 9.078125 216.757812 C 9.183594 217.121094 10.183594 217.765625 10.441406 218.078125 C 11.007812 218.765625 11.46875 219.558594 11.902344 220.335938 C 13.132812 222.550781 13.632812 225.179688 14.96875 227.339844 C 15.871094 228.800781 14.691406 226.214844 15.367188 226.457031 C 15.324219 226.445312 14.738281 227.449219 14.691406 227.535156 C 13.65625 229.433594 13.332031 231.488281 13.25 233.628906 C 13.132812 236.421875 16.074219 238.472656 18.667969 237.75 C 31.875 234.097656 45.195312 230.902344 58.625 228.183594 C 64.015625 227.09375 61.734375 218.839844 56.355469 219.9375 Z M 56.355469 219.945312 " fill-opacity="1" fill-rule="nonzero"/><path fill="#5e4d5c" d="M 262.285156 145.917969 C 270.523438 143.511719 278.929688 141.644531 287.433594 140.484375 C 291.636719 139.914062 295.863281 139.515625 300.089844 139.261719 C 302.070312 139.144531 304.046875 139.046875 306.03125 139.011719 C 306.695312 138.996094 307.378906 138.960938 308.042969 139.011719 C 309.558594 139.136719 308.589844 139.109375 308.582031 139.136719 C 308.359375 141.4375 310.707031 143.414062 312.859375 143.414062 C 315.359375 143.414062 316.910156 141.445312 317.136719 139.136719 C 317.652344 133.859375 312.648438 130.785156 308.007812 130.472656 C 302.816406 130.121094 297.351562 130.8125 292.195312 131.359375 C 281.292969 132.511719 270.53125 134.601562 260.003906 137.667969 C 254.730469 139.207031 256.972656 147.46875 262.277344 145.917969 Z M 262.285156 145.917969 " fill-opacity="1" fill-rule="nonzero"/><path fill="#5e4d5c" d="M 151.054688 135.320312 C 159.957031 140.074219 169.820312 141.746094 179.792969 140.347656 C 182.015625 140.03125 183.425781 137.089844 182.777344 135.085938 C 181.984375 132.644531 179.898438 131.765625 177.511719 132.101562 C 178.226562 132.003906 176.597656 132.191406 176.453125 132.203125 C 176.011719 132.246094 175.570312 132.273438 175.125 132.304688 C 174.089844 132.359375 173.054688 132.378906 172.027344 132.359375 C 169.695312 132.308594 168.457031 132.183594 166.554688 131.828125 C 164.507812 131.449219 162.496094 130.910156 160.523438 130.226562 C 158.554688 129.542969 157.449219 129.046875 155.375 127.933594 C 153.402344 126.878906 150.628906 127.375 149.523438 129.472656 C 148.476562 131.457031 148.953125 134.195312 151.0625 135.320312 Z M 151.054688 135.320312 " fill-opacity="1" fill-rule="nonzero"/><path fill="#b6c9e0" d="M 51.855469 172.074219 C 50.765625 170.230469 26.738281 128.898438 20.644531 127.542969 C 14.550781 126.1875 7.121094 128.585938 11.859375 139.410156 C 16.597656 150.234375 33.734375 182.578125 36.976562 191.796875 C 37.492188 193.269531 59.402344 239.289062 71.890625 258.757812 C 75.609375 264.550781 79.136719 262.421875 81.542969 262.195312 C 86.972656 261.6875 154.621094 240.546875 161.382812 237.15625 C 168.148438 233.773438 168.828125 232.417969 169.503906 225.65625 C 170.183594 218.890625 150.558594 147.839844 145.144531 141.074219 C 139.726562 134.308594 136.34375 133.628906 129.578125 137.691406 C 122.816406 141.75 56.800781 180.460938 51.847656 172.066406 Z M 51.855469 172.074219 " fill-opacity="1" fill-rule="nonzero"/><path fill="#ffffff" d="M 95.519531 237.445312 C 95.519531 237.445312 93.34375 235.125 91.414062 227.410156 C 90.585938 224.089844 93.839844 222.355469 95.148438 221.0625 C 97.035156 219.195312 139.40625 205.75 139.40625 205.75 C 139.40625 205.75 145.617188 203.261719 148.105469 209.0625 C 150.59375 214.863281 152.082031 218.839844 152.082031 218.839844 C 152.082031 218.839844 155.90625 225.578125 145.6875 229.832031 C 137.300781 233.320312 119.574219 238.296875 109.105469 241.6875 C 104.875 243.054688 99.472656 246.5625 95.519531 237.449219 Z M 95.519531 237.445312 " fill-opacity="1" fill-rule="nonzero"/><path fill="#ffffff" d="M 93.289062 196.882812 C 101.988281 193.429688 110.695312 189.976562 119.398438 186.519531 C 120.65625 186.023438 121.914062 185.519531 123.171875 185.023438 C 125.316406 184.171875 126.820312 182.164062 126.15625 179.761719 C 125.597656 177.71875 123.050781 175.917969 120.894531 176.777344 C 112.191406 180.230469 103.484375 183.683594 94.785156 187.140625 C 93.527344 187.636719 92.269531 188.140625 91.011719 188.636719 C 88.863281 189.488281 87.363281 191.496094 88.027344 193.898438 C 88.585938 195.941406 91.128906 197.742188 93.289062 196.882812 Z M 93.289062 196.882812 " fill-opacity="1" fill-rule="nonzero"/><path fill="#ffffff" d="M 99.976562 209.820312 C 104.402344 208.128906 108.824219 206.429688 113.253906 204.738281 C 113.882812 204.5 114.511719 204.253906 115.140625 204.019531 C 116.210938 203.605469 117.097656 203.074219 117.699219 202.054688 C 118.238281 201.140625 118.460938 199.785156 118.132812 198.757812 C 117.476562 196.722656 115.105469 194.914062 112.871094 195.773438 C 108.445312 197.464844 104.023438 199.160156 99.59375 200.851562 C 98.964844 201.089844 98.335938 201.335938 97.707031 201.570312 C 96.636719 201.984375 95.75 202.515625 95.148438 203.535156 C 94.609375 204.453125 94.386719 205.808594 94.714844 206.835938 C 95.371094 208.867188 97.742188 210.679688 99.976562 209.820312 Z M 99.976562 209.820312 " fill-opacity="1" fill-rule="nonzero"/><path fill="#ffffff" d="M 51.203125 185.871094 C 53.714844 193.390625 55.488281 201.125 57.472656 208.792969 C 60.164062 219.191406 63.292969 229.457031 67.019531 239.535156 C 68.914062 244.648438 77.179688 242.441406 75.265625 237.261719 C 71.539062 227.183594 68.410156 216.925781 65.71875 206.519531 C 63.734375 198.855469 61.960938 191.117188 59.449219 183.597656 C 57.71875 178.40625 49.449219 180.628906 51.203125 185.871094 Z M 51.203125 185.871094 " fill-opacity="1" fill-rule="nonzero"/><path fill="#ffa59b" d="M 268.007812 184.667969 C 261.703125 199.433594 245.300781 205.6875 230.960938 209.964844 C 215.710938 214.507812 198.472656 213.863281 182.875 211.523438 C 179.164062 210.964844 175.480469 210.230469 171.886719 209.125 C 166.898438 207.589844 161.308594 206.078125 156.703125 209.441406 C 154.320312 211.179688 153.96875 213.871094 155.835938 216.15625 C 158.324219 219.210938 162.230469 219.804688 165.941406 219.40625 C 168.902344 219.09375 173.371094 217.367188 176.09375 219.058594 C 176.4375 216.449219 176.773438 213.84375 177.113281 211.238281 C 172.964844 212.964844 168.519531 214.585938 163.984375 214.746094 C 161.804688 214.824219 159.671875 214.355469 157.503906 214.375 C 155.632812 214.390625 154.234375 214.710938 152.453125 214.535156 C 150.929688 214.390625 149.546875 215.472656 148.761719 216.652344 C 146.875 219.496094 148.867188 223.503906 151.539062 225.011719 C 154.472656 226.667969 158.40625 226.058594 161.609375 225.71875 C 168.699219 224.949219 175.800781 223.195312 181.28125 218.386719 C 183.878906 216.109375 181.953125 210.601562 178.253906 211.082031 C 170.65625 212.074219 163.515625 214.683594 156.078125 216.402344 C 150.707031 217.644531 152.992188 225.808594 158.351562 224.648438 C 161.585938 223.949219 164.828125 225.125 168.058594 224.507812 C 172.445312 223.675781 171.796875 217.449219 168.058594 216.261719 C 161.972656 214.324219 156.164062 213.375 150.929688 217.738281 C 148.140625 220.0625 150.371094 225.304688 153.957031 225.039062 C 163.167969 224.355469 172.273438 223.886719 180.414062 219.058594 C 185.144531 216.253906 180.847656 208.855469 176.09375 211.671875 C 169.308594 215.695312 161.621094 215.914062 153.957031 216.484375 L 156.980469 223.789062 C 159.28125 221.875 163.335938 223.734375 165.785156 224.515625 L 165.785156 216.269531 C 165.828125 216.261719 162.902344 215.914062 162.105469 215.878906 C 160.0625 215.78125 158.078125 215.976562 156.085938 216.410156 L 158.359375 224.65625 C 164.996094 223.117188 171.476562 220.53125 178.261719 219.644531 C 177.253906 217.210938 176.242188 214.773438 175.234375 212.339844 C 172.542969 214.703125 168.972656 215.773438 165.535156 216.511719 C 163.914062 216.863281 162.273438 217.113281 160.621094 217.269531 C 159.679688 217.359375 158.730469 217.421875 157.777344 217.464844 L 156.785156 217.507812 C 155.617188 217.324219 155.5 217.464844 156.421875 217.925781 C 156.277344 219.023438 156.136719 220.121094 155.988281 221.222656 L 156.148438 220.980469 C 154.917969 221.683594 153.691406 222.390625 152.460938 223.097656 C 153.816406 223.230469 155.746094 223.003906 157.511719 222.9375 C 160.078125 222.839844 162.566406 223.445312 165.15625 223.238281 C 170.121094 222.832031 174.824219 221.398438 179.402344 219.496094 C 182.699219 218.121094 183.804688 213.773438 180.421875 211.675781 C 177.121094 209.628906 173.433594 209.734375 169.726562 210.265625 C 167.546875 210.574219 163.507812 212.105469 161.894531 210.113281 L 161.027344 216.828125 C 164.226562 214.492188 169.167969 217.351562 172.601562 218.21875 C 176.339844 219.15625 180.15625 219.742188 183.976562 220.246094 C 192.726562 221.382812 201.597656 221.816406 210.414062 221.566406 C 227.472656 221.078125 245.316406 216.289062 259.664062 206.820312 C 266.414062 202.363281 272.191406 196.5 275.402344 188.984375 C 277.539062 183.980469 270.171875 179.613281 268.015625 184.667969 Z M 268.007812 184.667969 " fill-opacity="1" fill-rule="nonzero"/><path fill="#ffa59b" d="M 35.082031 170.921875 C 34.335938 168.160156 32.878906 165.589844 30.894531 163.519531 C 29.785156 162.367188 28.246094 161.304688 26.695312 161.710938 L 30.894531 163.519531 C 30.007812 162.976562 27.457031 159.203125 24.773438 160.171875 C 23.796875 160.527344 23.207031 161.640625 23.144531 162.679688 C 23.082031 163.714844 23.542969 164.695312 23.992188 165.625 C 25.535156 168.789062 26.6875 170.859375 30.085938 174.484375 C 30.894531 175.34375 31.460938 175.226562 32.558594 175.660156 C 32.957031 175.8125 34.304688 175.765625 34.675781 175.5625 C 34.933594 175.414062 35.074219 175.136719 35.171875 174.855469 C 35.613281 173.597656 35.425781 172.207031 35.074219 170.921875 Z M 35.082031 170.921875 " fill-opacity="1" fill-rule="nonzero"/><path fill="#ffa59b" d="M 39.207031 169.78125 C 38.367188 166.769531 36.898438 164.09375 34.949219 161.667969 C 34.011719 160.507812 32.929688 159.472656 31.679688 158.65625 C 29.832031 157.453125 27.703125 157.125 25.5625 157.578125 C 23.921875 157.929688 22.710938 159.566406 22.503906 161.136719 C 22.292969 162.710938 23.007812 164.734375 24.542969 165.398438 C 25.941406 166 27.339844 166.609375 28.742188 167.210938 C 29.839844 167.683594 30.832031 167.972656 32.042969 167.644531 C 33.035156 167.371094 34.109375 166.601562 34.601562 165.679688 C 35.738281 163.527344 35.0625 161.152344 33.0625 159.832031 C 32.71875 159.601562 34.125 160.757812 33.53125 160.164062 C 33.390625 160.027344 33.242188 159.886719 33.105469 159.738281 C 32.726562 159.355469 32.355469 158.96875 31.957031 158.613281 C 30.691406 157.476562 29.199219 156.363281 27.5 155.964844 C 25.160156 155.421875 22.621094 155.945312 20.917969 157.71875 C 19.058594 159.65625 18.476562 162.5 19.183594 165.058594 C 19.628906 166.6875 20.523438 168.285156 21.320312 169.78125 C 21.878906 170.832031 22.496094 171.835938 23.1875 172.800781 C 24.199219 174.210938 25.304688 175.566406 26.472656 176.859375 C 27.136719 177.59375 27.855469 178.328125 28.742188 178.796875 C 29.554688 179.222656 30.449219 179.46875 31.316406 179.742188 C 33.566406 180.453125 36.367188 179.976562 38.015625 178.28125 C 40.140625 176.097656 39.910156 172.488281 39.207031 169.78125 C 38.640625 167.617188 36.125 166.09375 33.941406 166.796875 C 31.761719 167.503906 30.351562 169.738281 30.957031 172.058594 C 31.035156 172.359375 31.085938 172.675781 31.167969 172.976562 C 31.292969 173.414062 31.121094 172.507812 31.121094 172.5 C 31.105469 172.660156 31.15625 172.863281 31.160156 173.03125 C 31.160156 173.21875 31.085938 174.273438 31.167969 173.511719 C 31.246094 172.851562 31.195312 173.332031 31.140625 173.464844 C 30.691406 174.476562 32.628906 171.792969 32.523438 171.871094 C 33.292969 171.328125 33.613281 171.464844 33.1875 171.550781 C 33.082031 171.570312 34.339844 171.460938 33.90625 171.453125 C 33.691406 171.453125 33.480469 171.480469 33.265625 171.472656 C 32.449219 171.453125 33.738281 171.527344 33.746094 171.550781 C 33.683594 171.417969 33.117188 171.339844 32.964844 171.292969 C 32.875 171.261719 32.398438 171.066406 32.355469 171.109375 C 32.34375 171.117188 33.292969 171.523438 32.976562 171.367188 C 32.816406 171.292969 32.460938 171.011719 33.011719 171.429688 C 33.628906 171.890625 32.949219 171.285156 32.8125 171.136719 C 32.550781 170.859375 32.300781 170.585938 32.054688 170.300781 C 31.664062 169.859375 31.28125 169.410156 30.910156 168.949219 C 30.328125 168.238281 31.371094 169.578125 30.945312 169.007812 C 30.777344 168.777344 30.601562 168.550781 30.441406 168.3125 C 29.367188 166.789062 28.5 165.140625 27.6875 163.464844 C 27.703125 163.492188 27.429688 162.976562 27.445312 162.953125 C 27.464844 162.925781 27.738281 163.785156 27.597656 163.316406 C 27.519531 163.066406 27.457031 162.597656 27.324219 162.375 C 27.414062 162.527344 27.339844 163.375 27.421875 162.675781 C 27.421875 162.625 27.199219 163.695312 27.347656 163.289062 C 27.375 163.207031 27.421875 163.066406 27.429688 162.980469 C 27.128906 163.632812 27.050781 163.808594 27.207031 163.511719 C 27.234375 163.449219 27.269531 163.386719 27.3125 163.324219 C 27.464844 162.953125 26.941406 163.785156 26.953125 163.773438 C 27.351562 163.289062 26.605469 164.007812 26.5625 164.042969 C 26.683594 163.953125 27.09375 163.785156 26.417969 164.09375 C 25.558594 164.476562 26.890625 164.113281 25.878906 164.246094 C 24.863281 164.378906 26.507812 164.394531 25.445312 164.246094 C 24.578125 164.121094 25.425781 164.296875 25.648438 164.359375 C 26.117188 164.484375 24.710938 163.875 25.125 164.148438 C 25.222656 164.21875 25.339844 164.269531 25.445312 164.332031 C 25.605469 164.429688 26.359375 164.980469 25.703125 164.476562 C 25.046875 163.972656 25.765625 164.546875 25.914062 164.679688 C 26.085938 164.839844 26.261719 165 26.429688 165.167969 C 27.183594 165.910156 27.855469 166.628906 28.742188 167.222656 C 30.183594 164.765625 31.621094 162.296875 33.0625 159.835938 C 31.664062 159.234375 30.265625 158.628906 28.863281 158.027344 C 28.519531 160.632812 28.183594 163.242188 27.84375 165.847656 C 27.148438 165.902344 26.976562 165.929688 27.316406 165.917969 C 27.660156 165.917969 27.480469 165.882812 26.785156 165.8125 C 26.90625 165.832031 27.023438 165.859375 27.144531 165.894531 C 27.457031 165.992188 27.3125 165.925781 26.703125 165.6875 C 26.792969 165.820312 27.226562 165.988281 27.375 166.0625 C 28.023438 166.421875 26.878906 165.601562 27.234375 165.945312 C 27.589844 166.289062 27.925781 166.589844 28.242188 166.945312 C 28.414062 167.140625 28.582031 167.335938 28.75 167.539062 C 29.351562 168.246094 28.199219 166.734375 28.714844 167.496094 C 29.234375 168.257812 29.769531 169.082031 30.195312 169.941406 C 30.308594 170.171875 30.40625 170.425781 30.53125 170.648438 C 29.972656 169.640625 30.378906 170.285156 30.496094 170.59375 C 30.679688 171.082031 30.832031 171.578125 30.972656 172.082031 C 31.574219 174.234375 34.027344 175.785156 36.234375 175.066406 C 38.4375 174.351562 39.867188 172.109375 39.21875 169.804688 Z M 39.207031 169.78125 " fill-opacity="1" fill-rule="nonzero"/><g fill="#b6c9e0" fill-opacity="1"><g transform="translate(187.502684, 308.975205)"><g><path d="M 4.4375 -15.9375 C 4.613281 -15.894531 4.765625 -15.816406 4.890625 -15.703125 C 5.015625 -15.597656 5.140625 -15.445312 5.265625 -15.25 C 5.316406 -15.144531 5.375 -15.066406 5.4375 -15.015625 C 5.5 -14.972656 5.625 -14.9375 5.8125 -14.90625 C 7.019531 -14.625 8.015625 -13.832031 8.796875 -12.53125 C 9.585938 -11.238281 9.984375 -9.71875 9.984375 -7.96875 C 9.984375 -6.757812 9.796875 -5.640625 9.421875 -4.609375 C 9.035156 -3.585938 8.484375 -2.703125 7.765625 -1.953125 C 7.304688 -1.492188 6.835938 -1.140625 6.359375 -0.890625 C 5.867188 -0.660156 5.359375 -0.53125 4.828125 -0.5 L 4.609375 -0.5 C 4.503906 -0.5 4.390625 -0.507812 4.265625 -0.53125 C 4.097656 -0.539062 3.953125 -0.5625 3.828125 -0.59375 C 3.484375 -0.675781 3.171875 -0.804688 2.890625 -0.984375 C 2.617188 -1.148438 2.328125 -1.378906 2.015625 -1.671875 C 1.421875 -2.285156 0.988281 -3.015625 0.71875 -3.859375 C 0.457031 -4.710938 0.328125 -5.757812 0.328125 -7 C 0.328125 -8.164062 0.445312 -9.269531 0.6875 -10.3125 C 0.9375 -11.332031 1.328125 -12.378906 1.859375 -13.453125 C 2.085938 -13.929688 2.363281 -14.414062 2.6875 -14.90625 C 3.007812 -15.394531 3.238281 -15.691406 3.375 -15.796875 C 3.46875 -15.859375 3.578125 -15.90625 3.703125 -15.9375 C 3.816406 -15.96875 3.9375 -15.984375 4.0625 -15.984375 L 4.25 -15.984375 Z M 4.25 -12.40625 C 4.113281 -12.320312 3.921875 -11.960938 3.671875 -11.328125 C 3.429688 -10.691406 3.238281 -10.0625 3.09375 -9.4375 C 2.832031 -8.195312 2.765625 -7.023438 2.890625 -5.921875 C 3.015625 -4.816406 3.304688 -4.003906 3.765625 -3.484375 C 3.984375 -3.253906 4.210938 -3.109375 4.453125 -3.046875 C 4.679688 -3.003906 4.9375 -3.046875 5.21875 -3.171875 C 5.644531 -3.367188 6.039062 -3.75 6.40625 -4.3125 C 6.769531 -4.863281 7.050781 -5.515625 7.25 -6.265625 C 7.457031 -7.015625 7.515625 -7.8125 7.421875 -8.65625 C 7.328125 -9.476562 7.128906 -10.210938 6.828125 -10.859375 C 6.648438 -11.203125 6.457031 -11.492188 6.25 -11.734375 C 6.03125 -11.992188 5.789062 -12.1875 5.53125 -12.3125 C 5.40625 -12.351562 5.269531 -12.390625 5.125 -12.421875 C 4.96875 -12.453125 4.8125 -12.46875 4.65625 -12.46875 C 4.582031 -12.46875 4.507812 -12.460938 4.4375 -12.453125 C 4.351562 -12.429688 4.289062 -12.414062 4.25 -12.40625 Z M 4.25 -12.40625 "/></g></g></g><g fill="#b6c9e0" fill-opacity="1"><g transform="translate(197.860213, 308.975205)"><g><path d="M 2.15625 1.40625 C 1.976562 1.375 1.84375 1.34375 1.75 1.3125 C 1.664062 1.257812 1.566406 1.179688 1.453125 1.078125 C 1.273438 0.921875 1.160156 0.757812 1.109375 0.59375 C 1.054688 0.425781 0.992188 0.078125 0.921875 -0.453125 C 0.671875 -2.535156 0.472656 -4.6875 0.328125 -6.90625 C 0.171875 -9.144531 0.0546875 -11.472656 -0.015625 -13.890625 C -0.0351562 -14.367188 -0.046875 -14.773438 -0.046875 -15.109375 C -0.0546875 -15.441406 -0.0625 -15.722656 -0.0625 -15.953125 L -0.0625 -16.140625 C -0.0625 -16.585938 -0.046875 -16.878906 -0.015625 -17.015625 C 0.0234375 -17.148438 0.0976562 -17.296875 0.203125 -17.453125 C 0.359375 -17.640625 0.570312 -17.769531 0.84375 -17.84375 C 0.96875 -17.875 1.09375 -17.890625 1.21875 -17.890625 C 1.351562 -17.890625 1.488281 -17.867188 1.625 -17.828125 C 1.75 -17.773438 1.875 -17.679688 2 -17.546875 C 2.132812 -17.421875 2.238281 -17.289062 2.3125 -17.15625 C 2.34375 -17.09375 2.375 -16.984375 2.40625 -16.828125 C 2.425781 -16.679688 2.441406 -16.492188 2.453125 -16.265625 C 2.453125 -16.078125 2.460938 -15.675781 2.484375 -15.0625 C 2.492188 -14.46875 2.515625 -13.832031 2.546875 -13.15625 C 2.578125 -11.78125 2.625 -10.65625 2.6875 -9.78125 C 2.726562 -8.925781 2.765625 -8.472656 2.796875 -8.421875 C 2.816406 -8.410156 2.878906 -8.488281 2.984375 -8.65625 C 3.109375 -8.820312 3.238281 -9.035156 3.375 -9.296875 C 3.601562 -9.722656 3.863281 -10.191406 4.15625 -10.703125 C 4.445312 -11.203125 4.738281 -11.695312 5.03125 -12.1875 C 5.59375 -13.113281 6.101562 -13.941406 6.5625 -14.671875 C 7.039062 -15.421875 7.332031 -15.835938 7.4375 -15.921875 C 7.53125 -16.003906 7.671875 -16.078125 7.859375 -16.140625 C 8.023438 -16.203125 8.171875 -16.234375 8.296875 -16.234375 C 8.398438 -16.234375 8.539062 -16.179688 8.71875 -16.078125 C 8.90625 -15.984375 9.050781 -15.882812 9.15625 -15.78125 C 9.3125 -15.613281 9.414062 -15.410156 9.46875 -15.171875 C 9.519531 -14.960938 9.503906 -14.75 9.421875 -14.53125 C 9.398438 -14.488281 9.296875 -14.304688 9.109375 -13.984375 C 8.929688 -13.679688 8.71875 -13.328125 8.46875 -12.921875 C 8.125 -12.378906 7.773438 -11.800781 7.421875 -11.1875 C 7.046875 -10.582031 6.691406 -9.992188 6.359375 -9.421875 C 5.734375 -8.328125 5.195312 -7.375 4.75 -6.5625 C 4.320312 -5.75 4.117188 -5.316406 4.140625 -5.265625 C 4.148438 -5.234375 4.289062 -5.203125 4.5625 -5.171875 C 4.820312 -5.148438 5.285156 -5.125 5.953125 -5.09375 C 7.679688 -5 8.859375 -4.925781 9.484375 -4.875 C 10.109375 -4.820312 10.5 -4.75 10.65625 -4.65625 C 10.925781 -4.507812 11.117188 -4.28125 11.234375 -3.96875 C 11.273438 -3.820312 11.296875 -3.675781 11.296875 -3.53125 C 11.296875 -3.382812 11.257812 -3.222656 11.1875 -3.046875 C 11.125 -2.898438 11.007812 -2.757812 10.84375 -2.625 C 10.675781 -2.46875 10.515625 -2.375 10.359375 -2.34375 L 9.625 -2.34375 C 9.207031 -2.351562 8.738281 -2.375 8.21875 -2.40625 C 6.457031 -2.519531 5.203125 -2.59375 4.453125 -2.625 C 3.703125 -2.644531 3.320312 -2.644531 3.3125 -2.625 C 3.289062 -2.601562 3.289062 -2.457031 3.3125 -2.1875 C 3.320312 -1.894531 3.351562 -1.554688 3.40625 -1.171875 C 3.476562 -0.421875 3.515625 0.0664062 3.515625 0.296875 C 3.492188 0.523438 3.414062 0.734375 3.28125 0.921875 C 3.175781 1.085938 3.007812 1.21875 2.78125 1.3125 C 2.613281 1.382812 2.457031 1.421875 2.3125 1.421875 C 2.257812 1.421875 2.207031 1.414062 2.15625 1.40625 Z M 2.15625 1.40625 "/></g></g></g><g fill="#b6c9e0" fill-opacity="1"><g transform="translate(209.61865, 308.975205)"><g><path d="M 5.421875 -0.25 C 4.535156 -0.40625 3.742188 -0.765625 3.046875 -1.328125 C 2.359375 -1.898438 1.796875 -2.660156 1.359375 -3.609375 C 1.097656 -4.222656 0.859375 -4.941406 0.640625 -5.765625 C 0.441406 -6.609375 0.296875 -7.492188 0.203125 -8.421875 C 0.171875 -8.679688 0.140625 -9 0.109375 -9.375 C 0.0976562 -9.75 0.078125 -10.128906 0.046875 -10.515625 C 0.0234375 -11.109375 0.0078125 -11.648438 0 -12.140625 L 0 -12.53125 C 0 -12.8125 0.00390625 -12.988281 0.015625 -13.0625 C 0.078125 -13.34375 0.234375 -13.566406 0.484375 -13.734375 C 0.710938 -13.921875 0.972656 -14.015625 1.265625 -14.015625 C 1.460938 -14.015625 1.628906 -13.972656 1.765625 -13.890625 C 1.921875 -13.816406 2.066406 -13.703125 2.203125 -13.546875 C 2.335938 -13.390625 2.421875 -13.222656 2.453125 -13.046875 C 2.484375 -12.859375 2.507812 -12.367188 2.53125 -11.578125 C 2.59375 -9.660156 2.742188 -8.101562 2.984375 -6.90625 C 3.210938 -5.71875 3.554688 -4.765625 4.015625 -4.046875 C 4.460938 -3.335938 5 -2.921875 5.625 -2.796875 C 6.238281 -2.691406 6.828125 -2.898438 7.390625 -3.421875 C 7.910156 -3.910156 8.328125 -4.613281 8.640625 -5.53125 C 8.953125 -6.4375 9.15625 -7.570312 9.25 -8.9375 C 9.269531 -9.144531 9.285156 -9.394531 9.296875 -9.6875 L 9.296875 -10.625 C 9.296875 -11.238281 9.289062 -11.890625 9.28125 -12.578125 C 9.25 -13.285156 9.21875 -13.898438 9.1875 -14.421875 C 9.15625 -14.773438 9.140625 -15.035156 9.140625 -15.203125 C 9.140625 -15.390625 9.15625 -15.519531 9.1875 -15.59375 C 9.375 -16.175781 9.769531 -16.46875 10.375 -16.46875 C 10.988281 -16.445312 11.390625 -16.144531 11.578125 -15.5625 C 11.640625 -15.351562 11.691406 -14.820312 11.734375 -13.96875 C 11.773438 -13.09375 11.804688 -12.179688 11.828125 -11.234375 L 11.828125 -10.671875 C 11.828125 -10.242188 11.816406 -9.832031 11.796875 -9.4375 C 11.785156 -8.875 11.765625 -8.429688 11.734375 -8.109375 C 11.660156 -7.273438 11.523438 -6.476562 11.328125 -5.71875 C 11.140625 -4.945312 10.914062 -4.289062 10.65625 -3.75 C 10.269531 -2.90625 9.753906 -2.179688 9.109375 -1.578125 C 8.453125 -0.972656 7.773438 -0.578125 7.078125 -0.390625 C 6.847656 -0.328125 6.554688 -0.28125 6.203125 -0.25 Z M 5.421875 -0.25 "/></g></g></g><g fill="#b6c9e0" fill-opacity="1"><g transform="translate(221.859367, 308.975205)"><g><path d="M 1.3125 -16.96875 C 1.664062 -16.957031 2.054688 -16.921875 2.484375 -16.859375 C 2.921875 -16.796875 3.3125 -16.71875 3.65625 -16.625 C 5.0625 -16.289062 6.253906 -15.648438 7.234375 -14.703125 C 8.203125 -13.765625 8.859375 -12.609375 9.203125 -11.234375 C 9.296875 -10.859375 9.359375 -10.398438 9.390625 -9.859375 C 9.410156 -9.648438 9.421875 -9.457031 9.421875 -9.28125 C 9.421875 -8.957031 9.394531 -8.671875 9.34375 -8.421875 C 9.164062 -7.046875 8.625 -5.722656 7.71875 -4.453125 C 6.8125 -3.203125 5.625 -2.085938 4.15625 -1.109375 C 3.414062 -0.617188 2.859375 -0.296875 2.484375 -0.140625 C 2.234375 -0.046875 2.019531 0 1.84375 0 C 1.695312 0 1.570312 -0.0195312 1.46875 -0.0625 C 1.3125 -0.113281 1.175781 -0.1875 1.0625 -0.28125 C 0.9375 -0.363281 0.835938 -0.460938 0.765625 -0.578125 C 0.703125 -0.679688 0.660156 -0.929688 0.640625 -1.328125 C 0.609375 -1.710938 0.585938 -2.609375 0.578125 -4.015625 C 0.554688 -5.304688 0.53125 -6.738281 0.5 -8.3125 C 0.457031 -9.875 0.421875 -11.304688 0.390625 -12.609375 C 0.378906 -13.109375 0.347656 -13.863281 0.296875 -14.875 C 0.253906 -14.957031 0.175781 -15.070312 0.0625 -15.21875 C -0.0507812 -15.425781 -0.125 -15.601562 -0.15625 -15.75 L -0.15625 -15.828125 C -0.15625 -15.941406 -0.125 -16.078125 -0.0625 -16.234375 C 0.0390625 -16.460938 0.191406 -16.640625 0.390625 -16.765625 C 0.578125 -16.890625 0.804688 -16.957031 1.078125 -16.96875 C 1.109375 -16.988281 1.144531 -17 1.1875 -17 C 1.238281 -17 1.28125 -16.988281 1.3125 -16.96875 Z M 2.984375 -9.15625 C 3.015625 -8.332031 3.035156 -7.492188 3.046875 -6.640625 C 3.066406 -5.773438 3.078125 -5.15625 3.078125 -4.78125 C 3.085938 -4.394531 3.09375 -4.066406 3.09375 -3.796875 C 3.113281 -3.503906 3.128906 -3.347656 3.140625 -3.328125 C 3.160156 -3.296875 3.207031 -3.304688 3.28125 -3.359375 C 3.34375 -3.398438 3.503906 -3.519531 3.765625 -3.71875 C 4.710938 -4.5 5.460938 -5.378906 6.015625 -6.359375 C 6.566406 -7.359375 6.859375 -8.347656 6.890625 -9.328125 C 6.921875 -10.191406 6.710938 -11.039062 6.265625 -11.875 C 5.835938 -12.71875 5.265625 -13.351562 4.546875 -13.78125 C 4.316406 -13.914062 4.023438 -14.0625 3.671875 -14.21875 C 3.304688 -14.351562 3.078125 -14.421875 2.984375 -14.421875 C 2.941406 -14.421875 2.921875 -14.328125 2.921875 -14.140625 C 2.898438 -13.972656 2.898438 -13.53125 2.921875 -12.8125 C 2.921875 -12.414062 2.925781 -11.921875 2.9375 -11.328125 C 2.957031 -10.742188 2.972656 -10.019531 2.984375 -9.15625 Z M 2.984375 -9.15625 "/></g></g></g><g fill="#b6c9e0" fill-opacity="1"><g transform="translate(231.734617, 308.975205)"><g><path d="M 4.4375 -15.9375 C 4.613281 -15.894531 4.765625 -15.816406 4.890625 -15.703125 C 5.015625 -15.597656 5.140625 -15.445312 5.265625 -15.25 C 5.316406 -15.144531 5.375 -15.066406 5.4375 -15.015625 C 5.5 -14.972656 5.625 -14.9375 5.8125 -14.90625 C 7.019531 -14.625 8.015625 -13.832031 8.796875 -12.53125 C 9.585938 -11.238281 9.984375 -9.71875 9.984375 -7.96875 C 9.984375 -6.757812 9.796875 -5.640625 9.421875 -4.609375 C 9.035156 -3.585938 8.484375 -2.703125 7.765625 -1.953125 C 7.304688 -1.492188 6.835938 -1.140625 6.359375 -0.890625 C 5.867188 -0.660156 5.359375 -0.53125 4.828125 -0.5 L 4.609375 -0.5 C 4.503906 -0.5 4.390625 -0.507812 4.265625 -0.53125 C 4.097656 -0.539062 3.953125 -0.5625 3.828125 -0.59375 C 3.484375 -0.675781 3.171875 -0.804688 2.890625 -0.984375 C 2.617188 -1.148438 2.328125 -1.378906 2.015625 -1.671875 C 1.421875 -2.285156 0.988281 -3.015625 0.71875 -3.859375 C 0.457031 -4.710938 0.328125 -5.757812 0.328125 -7 C 0.328125 -8.164062 0.445312 -9.269531 0.6875 -10.3125 C 0.9375 -11.332031 1.328125 -12.378906 1.859375 -13.453125 C 2.085938 -13.929688 2.363281 -14.414062 2.6875 -14.90625 C 3.007812 -15.394531 3.238281 -15.691406 3.375 -15.796875 C 3.46875 -15.859375 3.578125 -15.90625 3.703125 -15.9375 C 3.816406 -15.96875 3.9375 -15.984375 4.0625 -15.984375 L 4.25 -15.984375 Z M 4.25 -12.40625 C 4.113281 -12.320312 3.921875 -11.960938 3.671875 -11.328125 C 3.429688 -10.691406 3.238281 -10.0625 3.09375 -9.4375 C 2.832031 -8.195312 2.765625 -7.023438 2.890625 -5.921875 C 3.015625 -4.816406 3.304688 -4.003906 3.765625 -3.484375 C 3.984375 -3.253906 4.210938 -3.109375 4.453125 -3.046875 C 4.679688 -3.003906 4.9375 -3.046875 5.21875 -3.171875 C 5.644531 -3.367188 6.039062 -3.75 6.40625 -4.3125 C 6.769531 -4.863281 7.050781 -5.515625 7.25 -6.265625 C 7.457031 -7.015625 7.515625 -7.8125 7.421875 -8.65625 C 7.328125 -9.476562 7.128906 -10.210938 6.828125 -10.859375 C 6.648438 -11.203125 6.457031 -11.492188 6.25 -11.734375 C 6.03125 -11.992188 5.789062 -12.1875 5.53125 -12.3125 C 5.40625 -12.351562 5.269531 -12.390625 5.125 -12.421875 C 4.96875 -12.453125 4.8125 -12.46875 4.65625 -12.46875 C 4.582031 -12.46875 4.507812 -12.460938 4.4375 -12.453125 C 4.351562 -12.429688 4.289062 -12.414062 4.25 -12.40625 Z M 4.25 -12.40625 "/></g></g></g><g fill="#b6c9e0" fill-opacity="1"><g transform="translate(242.092146, 308.975205)"><g><path d="M 2.15625 1.40625 C 1.976562 1.375 1.84375 1.34375 1.75 1.3125 C 1.664062 1.257812 1.566406 1.179688 1.453125 1.078125 C 1.273438 0.921875 1.160156 0.757812 1.109375 0.59375 C 1.054688 0.425781 0.992188 0.078125 0.921875 -0.453125 C 0.671875 -2.535156 0.472656 -4.6875 0.328125 -6.90625 C 0.171875 -9.144531 0.0546875 -11.472656 -0.015625 -13.890625 C -0.0351562 -14.367188 -0.046875 -14.773438 -0.046875 -15.109375 C -0.0546875 -15.441406 -0.0625 -15.722656 -0.0625 -15.953125 L -0.0625 -16.140625 C -0.0625 -16.585938 -0.046875 -16.878906 -0.015625 -17.015625 C 0.0234375 -17.148438 0.0976562 -17.296875 0.203125 -17.453125 C 0.359375 -17.640625 0.570312 -17.769531 0.84375 -17.84375 C 0.96875 -17.875 1.09375 -17.890625 1.21875 -17.890625 C 1.351562 -17.890625 1.488281 -17.867188 1.625 -17.828125 C 1.75 -17.773438 1.875 -17.679688 2 -17.546875 C 2.132812 -17.421875 2.238281 -17.289062 2.3125 -17.15625 C 2.34375 -17.09375 2.375 -16.984375 2.40625 -16.828125 C 2.425781 -16.679688 2.441406 -16.492188 2.453125 -16.265625 C 2.453125 -16.078125 2.460938 -15.675781 2.484375 -15.0625 C 2.492188 -14.46875 2.515625 -13.832031 2.546875 -13.15625 C 2.578125 -11.78125 2.625 -10.65625 2.6875 -9.78125 C 2.726562 -8.925781 2.765625 -8.472656 2.796875 -8.421875 C 2.816406 -8.410156 2.878906 -8.488281 2.984375 -8.65625 C 3.109375 -8.820312 3.238281 -9.035156 3.375 -9.296875 C 3.601562 -9.722656 3.863281 -10.191406 4.15625 -10.703125 C 4.445312 -11.203125 4.738281 -11.695312 5.03125 -12.1875 C 5.59375 -13.113281 6.101562 -13.941406 6.5625 -14.671875 C 7.039062 -15.421875 7.332031 -15.835938 7.4375 -15.921875 C 7.53125 -16.003906 7.671875 -16.078125 7.859375 -16.140625 C 8.023438 -16.203125 8.171875 -16.234375 8.296875 -16.234375 C 8.398438 -16.234375 8.539062 -16.179688 8.71875 -16.078125 C 8.90625 -15.984375 9.050781 -15.882812 9.15625 -15.78125 C 9.3125 -15.613281 9.414062 -15.410156 9.46875 -15.171875 C 9.519531 -14.960938 9.503906 -14.75 9.421875 -14.53125 C 9.398438 -14.488281 9.296875 -14.304688 9.109375 -13.984375 C 8.929688 -13.679688 8.71875 -13.328125 8.46875 -12.921875 C 8.125 -12.378906 7.773438 -11.800781 7.421875 -11.1875 C 7.046875 -10.582031 6.691406 -9.992188 6.359375 -9.421875 C 5.734375 -8.328125 5.195312 -7.375 4.75 -6.5625 C 4.320312 -5.75 4.117188 -5.316406 4.140625 -5.265625 C 4.148438 -5.234375 4.289062 -5.203125 4.5625 -5.171875 C 4.820312 -5.148438 5.285156 -5.125 5.953125 -5.09375 C 7.679688 -5 8.859375 -4.925781 9.484375 -4.875 C 10.109375 -4.820312 10.5 -4.75 10.65625 -4.65625 C 10.925781 -4.507812 11.117188 -4.28125 11.234375 -3.96875 C 11.273438 -3.820312 11.296875 -3.675781 11.296875 -3.53125 C 11.296875 -3.382812 11.257812 -3.222656 11.1875 -3.046875 C 11.125 -2.898438 11.007812 -2.757812 10.84375 -2.625 C 10.675781 -2.46875 10.515625 -2.375 10.359375 -2.34375 L 9.625 -2.34375 C 9.207031 -2.351562 8.738281 -2.375 8.21875 -2.40625 C 6.457031 -2.519531 5.203125 -2.59375 4.453125 -2.625 C 3.703125 -2.644531 3.320312 -2.644531 3.3125 -2.625 C 3.289062 -2.601562 3.289062 -2.457031 3.3125 -2.1875 C 3.320312 -1.894531 3.351562 -1.554688 3.40625 -1.171875 C 3.476562 -0.421875 3.515625 0.0664062 3.515625 0.296875 C 3.492188 0.523438 3.414062 0.734375 3.28125 0.921875 C 3.175781 1.085938 3.007812 1.21875 2.78125 1.3125 C 2.613281 1.382812 2.457031 1.421875 2.3125 1.421875 C 2.257812 1.421875 2.207031 1.414062 2.15625 1.40625 Z M 2.15625 1.40625 "/></g></g></g><g fill="#b6c9e0" fill-opacity="1"><g transform="translate(253.850583, 308.975205)"><g><path d="M 5.421875 -0.25 C 4.535156 -0.40625 3.742188 -0.765625 3.046875 -1.328125 C 2.359375 -1.898438 1.796875 -2.660156 1.359375 -3.609375 C 1.097656 -4.222656 0.859375 -4.941406 0.640625 -5.765625 C 0.441406 -6.609375 0.296875 -7.492188 0.203125 -8.421875 C 0.171875 -8.679688 0.140625 -9 0.109375 -9.375 C 0.0976562 -9.75 0.078125 -10.128906 0.046875 -10.515625 C 0.0234375 -11.109375 0.0078125 -11.648438 0 -12.140625 L 0 -12.53125 C 0 -12.8125 0.00390625 -12.988281 0.015625 -13.0625 C 0.078125 -13.34375 0.234375 -13.566406 0.484375 -13.734375 C 0.710938 -13.921875 0.972656 -14.015625 1.265625 -14.015625 C 1.460938 -14.015625 1.628906 -13.972656 1.765625 -13.890625 C 1.921875 -13.816406 2.066406 -13.703125 2.203125 -13.546875 C 2.335938 -13.390625 2.421875 -13.222656 2.453125 -13.046875 C 2.484375 -12.859375 2.507812 -12.367188 2.53125 -11.578125 C 2.59375 -9.660156 2.742188 -8.101562 2.984375 -6.90625 C 3.210938 -5.71875 3.554688 -4.765625 4.015625 -4.046875 C 4.460938 -3.335938 5 -2.921875 5.625 -2.796875 C 6.238281 -2.691406 6.828125 -2.898438 7.390625 -3.421875 C 7.910156 -3.910156 8.328125 -4.613281 8.640625 -5.53125 C 8.953125 -6.4375 9.15625 -7.570312 9.25 -8.9375 C 9.269531 -9.144531 9.285156 -9.394531 9.296875 -9.6875 L 9.296875 -10.625 C 9.296875 -11.238281 9.289062 -11.890625 9.28125 -12.578125 C 9.25 -13.285156 9.21875 -13.898438 9.1875 -14.421875 C 9.15625 -14.773438 9.140625 -15.035156 9.140625 -15.203125 C 9.140625 -15.390625 9.15625 -15.519531 9.1875 -15.59375 C 9.375 -16.175781 9.769531 -16.46875 10.375 -16.46875 C 10.988281 -16.445312 11.390625 -16.144531 11.578125 -15.5625 C 11.640625 -15.351562 11.691406 -14.820312 11.734375 -13.96875 C 11.773438 -13.09375 11.804688 -12.179688 11.828125 -11.234375 L 11.828125 -10.671875 C 11.828125 -10.242188 11.816406 -9.832031 11.796875 -9.4375 C 11.785156 -8.875 11.765625 -8.429688 11.734375 -8.109375 C 11.660156 -7.273438 11.523438 -6.476562 11.328125 -5.71875 C 11.140625 -4.945312 10.914062 -4.289062 10.65625 -3.75 C 10.269531 -2.90625 9.753906 -2.179688 9.109375 -1.578125 C 8.453125 -0.972656 7.773438 -0.578125 7.078125 -0.390625 C 6.847656 -0.328125 6.554688 -0.28125 6.203125 -0.25 Z M 5.421875 -0.25 "/></g></g></g></svg>